<svg width="40" height="40" viewBox="0 0 40 40" fill="none" xmlns="http://www.w3.org/2000/svg">
<path d="M15.2496 9.34999V2.95H24.6496C24.6496 11.6 24.6496 -10.1 24.6496 17.85C23.9496 18.35 23.4996 19.15 23.5496 20.1C23.7496 23.35 28.6496 23.25 28.6496 19.95C28.6496 19.1 28.1996 18.3 27.5496 17.85C27.5496 14.1 27.5496 3.75 27.5496 0C24.0496 0 17.3496 0 12.2996 0C12.2496 0 12.2996 9.39999 12.2996 9.34999C12.2996 11.3 15.2496 11.25 15.2496 9.34999Z" fill="white"/>
<path d="M9.34999 24.6009H2.95V15.2009C13.7 15.2009 10.85 15.2009 17.85 15.2009C19.25 17.2009 22.4 16.2509 22.5 13.8509C22.6 11.3009 19.3 10.201 17.85 12.301C14.25 12.301 3.6 12.301 0 12.301V27.551C0 27.601 9.39999 27.551 9.34999 27.551C11.35 27.501 11.3 24.6009 9.34999 24.6009Z" fill="white"/>
<path d="M29.0501 13.7512C29.0501 15.7012 31.0001 15.2012 36.9501 15.2012V24.6012C28.3001 24.6012 50.0001 24.6012 22.0501 24.6012C21.5501 23.9012 20.7501 23.4512 19.8001 23.5012C16.5501 23.7012 16.6501 28.6012 19.9501 28.6012C20.8001 28.6012 21.6001 28.1512 22.0501 27.5012C40.5501 27.5012 39.9001 27.5512 39.9001 27.5012V12.2512C30.6501 12.3012 29.0501 11.8012 29.0501 13.7512Z" fill="white"/>
<path d="M24.65 36.9013H15.25C15.25 13.1013 15.25 45.7013 15.25 22.0013C15.95 21.5013 16.4 20.7013 16.35 19.7513C16.15 16.5013 11.25 16.6013 11.25 19.9013C11.25 20.7513 11.7 21.5513 12.35 22.0013C12.35 32.0013 12.35 29.8513 12.35 39.8513C15.85 39.8513 22.55 39.8513 27.6 39.8513C27.65 39.8513 27.6 30.4513 27.6 30.5013C27.6 28.8513 25.75 29.0513 26.15 29.0513C24.15 29.0013 24.65 30.9513 24.65 36.9013Z" fill="white"/>
</svg>
