<svg width="21" height="21" viewBox="0 0 21 21" fill="none" xmlns="http://www.w3.org/2000/svg">
<path d="M7.5957 13.0464C9.83936 13.0464 11.6582 11.1852 11.6582 8.8894C11.6582 6.59356 9.83936 4.73242 7.5957 4.73242C5.35205 4.73242 3.5332 6.59356 3.5332 8.8894C3.5332 11.1852 5.35205 13.0464 7.5957 13.0464Z" stroke="#6A7688" stroke-width="2" stroke-miterlimit="10"/>
<path d="M12.8623 4.88724C13.4211 4.72615 14.0071 4.68945 14.5809 4.77962C15.1547 4.86979 15.7029 5.08473 16.1887 5.40997C16.6745 5.73521 17.0865 6.16319 17.397 6.66509C17.7075 7.16698 17.9093 7.73115 17.9888 8.31957C18.0683 8.90799 18.0237 9.50702 17.8579 10.0763C17.6921 10.6456 17.409 11.1719 17.0277 11.6198C16.6463 12.0677 16.1756 12.4268 15.6473 12.6728C15.1189 12.9189 14.5451 13.0463 13.9646 13.0464" stroke="#6A7688" stroke-width="2" stroke-linecap="round" stroke-linejoin="round"/>
<path d="M1.9707 16.0359C2.60518 15.1125 3.44749 14.3587 4.42652 13.8384C5.40555 13.3181 6.49256 13.0464 7.59577 13.0464C8.69898 13.0463 9.786 13.3179 10.7651 13.8382C11.7441 14.3584 12.5865 15.1121 13.2211 16.0355" stroke="#6A7688" stroke-width="2" stroke-linecap="round" stroke-linejoin="round"/>
<path d="M13.9648 13.0464C15.0682 13.0456 16.1554 13.3168 17.1346 13.8371C18.1137 14.3574 18.9559 15.1115 19.5899 16.0355" stroke="#6A7688" stroke-width="2" stroke-linecap="round" stroke-linejoin="round"/>
</svg>
