<svg width="21" height="21" viewBox="0 0 21 21" fill="none" xmlns="http://www.w3.org/2000/svg">
<path d="M8.2207 12.407H13.2207" stroke="#8B939F" stroke-width="2" stroke-linecap="round" stroke-linejoin="round"/>
<path d="M8.2207 9.84883H13.2207" stroke="#8B939F" stroke-width="2" stroke-linecap="round" stroke-linejoin="round"/>
<path d="M13.2209 3.45349H16.3457C16.5115 3.45349 16.6704 3.52087 16.7876 3.64081C16.9049 3.76074 16.9707 3.92341 16.9707 4.09303V17.5233C16.9707 17.6929 16.9049 17.8555 16.7876 17.9755C16.6704 18.0954 16.5115 18.1628 16.3457 18.1628H5.0957C4.92994 18.1628 4.77097 18.0954 4.65376 17.9755C4.53655 17.8555 4.4707 17.6929 4.4707 17.5233V4.09303C4.4707 3.92341 4.53655 3.76074 4.65376 3.64081C4.77097 3.52087 4.92994 3.45349 5.0957 3.45349H8.22053" stroke="#8B939F" stroke-width="2" stroke-linecap="round" stroke-linejoin="round"/>
<path d="M7.5957 6.01163V5.3721C7.5957 4.52402 7.92494 3.71068 8.51099 3.111C9.09705 2.51132 9.8919 2.17442 10.7207 2.17442C11.5495 2.17442 12.3444 2.51132 12.9304 3.111C13.5165 3.71068 13.8457 4.52402 13.8457 5.3721V6.01163H7.5957Z" stroke="#8B939F" stroke-width="2" stroke-linecap="round" stroke-linejoin="round"/>
</svg>
