<svg width="254" height="294" viewBox="0 0 254 294" fill="none" xmlns="http://www.w3.org/2000/svg">
<g clip-path="url(#clip0_68_413)">
<rect y="-0.5" width="254.5" height="294.728" rx="24" fill="#0D99FF"/>
<path d="M152 126.5C113.791 117.909 48.3336 18.8333 55.0003 0H257L256.5 294.728H82C82 214 144.001 279.5 186 220.5C204.865 194 309.5 161.914 152 126.5Z" fill="url(#paint0_linear_68_413)"/>
<rect x="24" y="24" width="72" height="70" rx="8" fill="white"/>
<path d="M48.8713 69.1287C47.541 67.7984 48.4233 65.0056 47.7463 63.3691C47.0444 61.6727 44.4688 60.3074 44.4688 58.4999C44.4688 56.6926 47.0444 55.3273 47.7463 53.6309C48.4234 51.9944 47.541 49.2016 48.8713 47.8713C50.2016 46.541 52.9944 47.4233 54.6309 46.7463C56.3273 46.0444 57.6926 43.4688 59.5001 43.4688C61.3074 43.4688 62.6727 46.0444 64.3691 46.7463C66.0056 47.4234 68.7984 46.541 70.1287 47.8713C71.459 49.2016 70.5767 51.9944 71.2537 53.6309C71.9556 55.3273 74.5312 56.6926 74.5312 58.5001C74.5312 60.3074 71.9556 61.6727 71.2537 63.3691C70.5766 65.0056 71.459 67.7984 70.1287 69.1287C68.7984 70.459 66.0056 69.5767 64.3691 70.2537C62.6727 70.9556 61.3074 73.5312 59.4999 73.5312C57.6926 73.5312 56.3273 70.9556 54.6309 70.2537C52.9944 69.5766 50.2016 70.459 48.8713 69.1287Z" stroke="#0D99FF" stroke-width="3" stroke-linecap="round" stroke-linejoin="round"/>
<path d="M65.8594 55.0312L57.3802 63.125L53.1406 59.0781" stroke="#0D99FF" stroke-width="3" stroke-linecap="round" stroke-linejoin="round"/>
</g>
<defs>
<linearGradient id="paint0_linear_68_413" x1="129.501" y1="73.5" x2="297.501" y2="259.5" gradientUnits="userSpaceOnUse">
<stop stop-color="#0D99FF"/>
<stop offset="1" stop-color="#107ACE" stop-opacity="0.51"/>
</linearGradient>
<clipPath id="clip0_68_413">
<rect y="-0.5" width="254.5" height="294.728" rx="24" fill="white"/>
</clipPath>
</defs>
</svg>
